<svg width="136" height="23" viewBox="0 0 136 23" fill="none" xmlns="http://www.w3.org/2000/svg">
<path d="M11.1338 4.81C8.95375 4.81 7.37375 5.42 6.39375 6.64C5.43375 7.84 4.95375 9.49 4.95375 11.59C4.95375 12.61 5.07375 13.54 5.31375 14.38C5.55375 15.2 5.91375 15.91 6.39375 16.51C6.87375 17.11 7.47375 17.58 8.19375 17.92C8.91375 18.24 9.75375 18.4 10.7138 18.4C11.2338 18.4 11.6738 18.39 12.0338 18.37C12.4138 18.35 12.7438 18.31 13.0238 18.25V11.02H17.7038V21.31C17.1438 21.53 16.2438 21.76 15.0038 22C13.7638 22.26 12.2338 22.39 10.4138 22.39C8.85375 22.39 7.43375 22.15 6.15375 21.67C4.89375 21.19 3.81375 20.49 2.91375 19.57C2.01375 18.65 1.31375 17.52 0.81375 16.18C0.33375 14.84 0.09375 13.31 0.09375 11.59C0.09375 9.85 0.36375 8.31 0.90375 6.97C1.44375 5.63 2.18375 4.5 3.12375 3.58C4.06375 2.64 5.16375 1.93 6.42375 1.45C7.70375 0.969998 9.06375 0.729998 10.5038 0.729998C11.4838 0.729998 12.3638 0.799999 13.1438 0.939999C13.9438 1.06 14.6238 1.21 15.1838 1.39C15.7638 1.55 16.2338 1.72 16.5938 1.9C16.9738 2.08 17.2438 2.22 17.4038 2.32L16.0538 6.07C15.4138 5.73 14.6738 5.44 13.8338 5.2C13.0138 4.94 12.1138 4.81 11.1338 4.81ZM43.4782 22C43.2582 21.28 43.0082 20.54 42.7282 19.78C42.4682 19.02 42.2082 18.26 41.9482 17.5H33.8482C33.5882 18.26 33.3182 19.02 33.0382 19.78C32.7782 20.54 32.5382 21.28 32.3182 22H27.4582C28.2382 19.76 28.9782 17.69 29.6782 15.79C30.3782 13.89 31.0582 12.1 31.7182 10.42C32.3982 8.74 33.0582 7.15 33.6982 5.65C34.3582 4.13 35.0382 2.65 35.7382 1.21H40.2082C40.8882 2.65 41.5582 4.13 42.2182 5.65C42.8782 7.15 43.5382 8.74 44.1982 10.42C44.8782 12.1 45.5682 13.89 46.2682 15.79C46.9682 17.69 47.7082 19.76 48.4882 22H43.4782ZM37.8682 5.92C37.7682 6.22 37.6182 6.63 37.4182 7.15C37.2182 7.67 36.9882 8.27 36.7282 8.95C36.4682 9.63 36.1782 10.38 35.8582 11.2C35.5582 12.02 35.2482 12.88 34.9282 13.78H40.8382C40.5182 12.88 40.2082 12.02 39.9082 11.2C39.6082 10.38 39.3182 9.63 39.0382 8.95C38.7782 8.27 38.5482 7.67 38.3482 7.15C38.1482 6.63 37.9882 6.22 37.8682 5.92ZM64.1993 1.21C64.5593 1.87 64.9693 2.69 65.4293 3.67C65.9093 4.63 66.3993 5.68 66.8993 6.82C67.4193 7.94 67.9293 9.09 68.4293 10.27C68.9293 11.45 69.3993 12.56 69.8393 13.6C70.2793 12.56 70.7493 11.45 71.2493 10.27C71.7493 9.09 72.2493 7.94 72.7493 6.82C73.2693 5.68 73.7593 4.63 74.2193 3.67C74.6993 2.69 75.1193 1.87 75.4793 1.21H79.7393C79.9393 2.59 80.1193 4.14 80.2793 5.86C80.4593 7.56 80.6093 9.34 80.7293 11.2C80.8693 13.04 80.9893 14.89 81.0893 16.75C81.2093 18.61 81.3093 20.36 81.3893 22H76.8293C76.7693 19.98 76.6893 17.78 76.5893 15.4C76.4893 13.02 76.3393 10.62 76.1393 8.2C75.7793 9.04 75.3793 9.97 74.9393 10.99C74.4993 12.01 74.0593 13.03 73.6193 14.05C73.1993 15.07 72.7893 16.05 72.3893 16.99C71.9893 17.91 71.6493 18.7 71.3693 19.36H68.0993C67.8193 18.7 67.4793 17.91 67.0793 16.99C66.6793 16.05 66.2593 15.07 65.8193 14.05C65.3993 13.03 64.9693 12.01 64.5293 10.99C64.0893 9.97 63.6893 9.04 63.3293 8.2C63.1293 10.62 62.9793 13.02 62.8793 15.4C62.7793 17.78 62.6993 19.98 62.6393 22H58.0793C58.1593 20.36 58.2493 18.61 58.3493 16.75C58.4693 14.89 58.5893 13.04 58.7093 11.2C58.8493 9.34 58.9993 7.56 59.1593 5.86C59.3393 4.14 59.5293 2.59 59.7293 1.21H64.1993ZM93.1031 22V1.21H107.143V5.14H97.7831V9.22H106.093V13.06H97.7831V18.07H107.833V22H93.1031ZM124.886 0.969999C128.006 0.969999 130.396 1.53 132.056 2.65C133.716 3.75 134.546 5.47 134.546 7.81C134.546 9.27 134.206 10.46 133.526 11.38C132.866 12.28 131.906 12.99 130.646 13.51C131.066 14.03 131.506 14.63 131.966 15.31C132.426 15.97 132.876 16.67 133.316 17.41C133.776 18.13 134.216 18.89 134.636 19.69C135.056 20.47 135.446 21.24 135.806 22H130.556C130.176 21.32 129.786 20.63 129.386 19.93C129.006 19.23 128.606 18.55 128.186 17.89C127.786 17.23 127.386 16.61 126.986 16.03C126.586 15.43 126.186 14.89 125.786 14.41H123.476V22H118.796V1.51C119.816 1.31 120.866 1.17 121.946 1.09C123.046 1.01 124.026 0.969999 124.886 0.969999ZM125.156 4.96C124.816 4.96 124.506 4.97 124.226 4.99C123.966 5.01 123.716 5.03 123.476 5.05V10.69H124.796C126.556 10.69 127.816 10.47 128.576 10.03C129.336 9.59 129.716 8.84 129.716 7.78C129.716 6.76 129.326 6.04 128.546 5.62C127.786 5.18 126.656 4.96 125.156 4.96Z" fill="#F3F3F3"/>
<path d="M11.1338 4.81C8.95375 4.81 7.37375 5.42 6.39375 6.64C5.43375 7.84 4.95375 9.49 4.95375 11.59C4.95375 12.61 5.07375 13.54 5.31375 14.38C5.55375 15.2 5.91375 15.91 6.39375 16.51C6.87375 17.11 7.47375 17.58 8.19375 17.92C8.91375 18.24 9.75375 18.4 10.7138 18.4C11.2338 18.4 11.6738 18.39 12.0338 18.37C12.4138 18.35 12.7438 18.31 13.0238 18.25V11.02H17.7038V21.31C17.1438 21.53 16.2438 21.76 15.0038 22C13.7638 22.26 12.2338 22.39 10.4138 22.39C8.85375 22.39 7.43375 22.15 6.15375 21.67C4.89375 21.19 3.81375 20.49 2.91375 19.57C2.01375 18.65 1.31375 17.52 0.81375 16.18C0.33375 14.84 0.09375 13.31 0.09375 11.59C0.09375 9.85 0.36375 8.31 0.90375 6.97C1.44375 5.63 2.18375 4.5 3.12375 3.58C4.06375 2.64 5.16375 1.93 6.42375 1.45C7.70375 0.969998 9.06375 0.729998 10.5038 0.729998C11.4838 0.729998 12.3638 0.799999 13.1438 0.939999C13.9438 1.06 14.6238 1.21 15.1838 1.39C15.7638 1.55 16.2338 1.72 16.5938 1.9C16.9738 2.08 17.2438 2.22 17.4038 2.32L16.0538 6.07C15.4138 5.73 14.6738 5.44 13.8338 5.2C13.0138 4.94 12.1138 4.81 11.1338 4.81ZM43.4782 22C43.2582 21.28 43.0082 20.54 42.7282 19.78C42.4682 19.02 42.2082 18.26 41.9482 17.5H33.8482C33.5882 18.26 33.3182 19.02 33.0382 19.78C32.7782 20.54 32.5382 21.28 32.3182 22H27.4582C28.2382 19.76 28.9782 17.69 29.6782 15.79C30.3782 13.89 31.0582 12.1 31.7182 10.42C32.3982 8.74 33.0582 7.15 33.6982 5.65C34.3582 4.13 35.0382 2.65 35.7382 1.21H40.2082C40.8882 2.65 41.5582 4.13 42.2182 5.65C42.8782 7.15 43.5382 8.74 44.1982 10.42C44.8782 12.1 45.5682 13.89 46.2682 15.79C46.9682 17.69 47.7082 19.76 48.4882 22H43.4782ZM37.8682 5.92C37.7682 6.22 37.6182 6.63 37.4182 7.15C37.2182 7.67 36.9882 8.27 36.7282 8.95C36.4682 9.63 36.1782 10.38 35.8582 11.2C35.5582 12.02 35.2482 12.88 34.9282 13.78H40.8382C40.5182 12.88 40.2082 12.02 39.9082 11.2C39.6082 10.38 39.3182 9.63 39.0382 8.95C38.7782 8.27 38.5482 7.67 38.3482 7.15C38.1482 6.63 37.9882 6.22 37.8682 5.92ZM64.1993 1.21C64.5593 1.87 64.9693 2.69 65.4293 3.67C65.9093 4.63 66.3993 5.68 66.8993 6.82C67.4193 7.94 67.9293 9.09 68.4293 10.27C68.9293 11.45 69.3993 12.56 69.8393 13.6C70.2793 12.56 70.7493 11.45 71.2493 10.27C71.7493 9.09 72.2493 7.94 72.7493 6.82C73.2693 5.68 73.7593 4.63 74.2193 3.67C74.6993 2.69 75.1193 1.87 75.4793 1.21H79.7393C79.9393 2.59 80.1193 4.14 80.2793 5.86C80.4593 7.56 80.6093 9.34 80.7293 11.2C80.8693 13.04 80.9893 14.89 81.0893 16.75C81.2093 18.61 81.3093 20.36 81.3893 22H76.8293C76.7693 19.98 76.6893 17.78 76.5893 15.4C76.4893 13.02 76.3393 10.62 76.1393 8.2C75.7793 9.04 75.3793 9.97 74.9393 10.99C74.4993 12.01 74.0593 13.03 73.6193 14.05C73.1993 15.07 72.7893 16.05 72.3893 16.99C71.9893 17.91 71.6493 18.7 71.3693 19.36H68.0993C67.8193 18.7 67.4793 17.91 67.0793 16.99C66.6793 16.05 66.2593 15.07 65.8193 14.05C65.3993 13.03 64.9693 12.01 64.5293 10.99C64.0893 9.97 63.6893 9.04 63.3293 8.2C63.1293 10.62 62.9793 13.02 62.8793 15.4C62.7793 17.78 62.6993 19.98 62.6393 22H58.0793C58.1593 20.36 58.2493 18.61 58.3493 16.75C58.4693 14.89 58.5893 13.04 58.7093 11.2C58.8493 9.34 58.9993 7.56 59.1593 5.86C59.3393 4.14 59.5293 2.59 59.7293 1.21H64.1993ZM93.1031 22V1.21H107.143V5.14H97.7831V9.22H106.093V13.06H97.7831V18.07H107.833V22H93.1031ZM124.886 0.969999C128.006 0.969999 130.396 1.53 132.056 2.65C133.716 3.75 134.546 5.47 134.546 7.81C134.546 9.27 134.206 10.46 133.526 11.38C132.866 12.28 131.906 12.99 130.646 13.51C131.066 14.03 131.506 14.63 131.966 15.31C132.426 15.97 132.876 16.67 133.316 17.41C133.776 18.13 134.216 18.89 134.636 19.69C135.056 20.47 135.446 21.24 135.806 22H130.556C130.176 21.32 129.786 20.63 129.386 19.93C129.006 19.23 128.606 18.55 128.186 17.89C127.786 17.23 127.386 16.61 126.986 16.03C126.586 15.43 126.186 14.89 125.786 14.41H123.476V22H118.796V1.51C119.816 1.31 120.866 1.17 121.946 1.09C123.046 1.01 124.026 0.969999 124.886 0.969999ZM125.156 4.96C124.816 4.96 124.506 4.97 124.226 4.99C123.966 5.01 123.716 5.03 123.476 5.05V10.69H124.796C126.556 10.69 127.816 10.47 128.576 10.03C129.336 9.59 129.716 8.84 129.716 7.78C129.716 6.76 129.326 6.04 128.546 5.62C127.786 5.18 126.656 4.96 125.156 4.96Z" fill="url(#paint0_linear)"/>
<defs>
<linearGradient id="paint0_linear" x1="67.5" y1="-8" x2="67.5" y2="24" gradientUnits="userSpaceOnUse">
<stop stop-color="#F1F1F1"/>
<stop offset="1" stop-color="#A5A5A5" stop-opacity="0.05"/>
</linearGradient>
</defs>
</svg>
