<svg width="37" height="22" viewBox="0 0 37 22" fill="none" xmlns="http://www.w3.org/2000/svg">
<path d="M36.1568 1.49187C36.4109 0.6325 36.1567 0 34.9341 0H30.8885C29.8582 0 29.3842 0.543125 29.1301 1.14812C29.1301 1.14812 27.0695 6.17375 24.1572 9.4325C23.2161 10.3744 22.7834 10.6769 22.2683 10.6769C22.0141 10.6769 21.6226 10.3744 21.6226 9.515V1.49187C21.6226 0.460625 21.3341 0 20.4824 0H14.122C13.4764 0 13.0917 0.48125 13.0917 0.928125C13.0917 1.90438 14.5479 2.13125 14.699 4.88125V10.8488C14.699 12.155 14.4654 12.3956 13.9503 12.3956C12.5766 12.3956 9.23838 7.34938 7.2602 1.57438C6.86181 0.45375 6.4703 0 5.43313 0H1.38747C0.233535 0 2.62019e-08 0.543125 2.62019e-08 1.14812C2.62019e-08 2.22062 1.37374 7.54875 6.39474 14.5888C9.73979 19.3944 14.4517 22 18.7378 22C21.3135 22 21.6295 21.4225 21.6295 20.4256C21.6295 15.8331 21.3959 15.4 22.6873 15.4C23.2848 15.4 24.3151 15.7025 26.7192 18.0194C29.4667 20.7694 29.92 22 31.4586 22H35.5042C36.6582 22 37.242 21.4225 36.9054 20.2812C36.1361 17.8819 30.9366 12.9456 30.703 12.6156C30.1054 11.8456 30.2772 11.5019 30.703 10.8144C30.7099 10.8075 35.6485 3.85 36.1568 1.49187Z" fill="#EAEAEA"/>
</svg>
