<svg width="653" height="598" viewBox="0 0 653 598" fill="none" xmlns="http://www.w3.org/2000/svg">
<g clip-path="url(#clip0)">
<path d="M142.8 353H183.6C206.142 353 224.4 334.721 224.4 312.199V271.4C224.4 248.858 206.142 230.6 183.6 230.6H142.8C120.258 230.6 102 248.858 102 271.4V312.199C102 334.721 120.258 353 142.8 353ZM142.8 271.4H183.6V312.199H142.8V271.4ZM469.2 516.199H510C532.542 516.199 550.801 497.941 550.801 475.4V434.6C550.801 412.059 532.542 393.801 510 393.801H469.2C446.679 393.801 428.4 412.059 428.4 434.6V475.4C428.4 497.941 446.658 516.199 469.2 516.199ZM469.2 434.6H510V475.4H469.2V434.6ZM469.2 353H510C532.542 353 550.801 334.721 550.801 312.199V271.4C550.801 248.858 532.542 230.6 510 230.6H469.2C446.679 230.6 428.4 248.858 428.4 271.4V312.199C428.4 334.721 446.658 353 469.2 353ZM469.2 271.4H510V312.199H469.2V271.4ZM550.801 -14.2H469.2V-34.6C469.2 -45.861 460.061 -55 448.801 -55C437.541 -55 428.401 -45.861 428.401 -34.6V-14.2H224.401V-34.6C224.4 -45.861 215.261 -55 204 -55C192.739 -55 183.6 -45.861 183.6 -34.6V-14.2H102C56.937 -14.2 20.4 22.337 20.4 67.4V516.199C20.4 561.263 56.937 597.801 102 597.801H550.8C595.863 597.801 632.4 561.264 632.4 516.199V67.4C632.4 22.336 595.864 -14.2 550.801 -14.2ZM591.601 516.199C591.601 538.742 573.343 557 550.801 557H102C79.458 557 61.2 538.721 61.2 516.199V149H591.6V516.199H591.601ZM591.601 108.2H61.2V67.4C61.2 44.858 79.458 26.6 102 26.6H183.6V47C183.6 58.261 192.739 67.4 204 67.4C215.261 67.4 224.4 58.261 224.4 47V26.6H428.4V47C428.4 58.261 437.54 67.4 448.8 67.4C460.06 67.4 469.2 58.261 469.2 47V26.6H550.801C573.343 26.6 591.601 44.858 591.601 67.4V108.2V108.2ZM306 516.199H346.8C369.342 516.199 387.6 497.941 387.6 475.4V434.6C387.6 412.059 369.342 393.801 346.8 393.801H306C283.479 393.801 265.2 412.059 265.2 434.6V475.4C265.2 497.941 283.458 516.199 306 516.199ZM306 434.6H346.8V475.4H306V434.6ZM306 353H346.8C369.342 353 387.6 334.721 387.6 312.199V271.4C387.6 248.858 369.342 230.6 346.8 230.6H306C283.479 230.6 265.2 248.858 265.2 271.4V312.199C265.2 334.721 283.458 353 306 353ZM306 271.4H346.8V312.199H306V271.4ZM142.8 516.199H183.6C206.142 516.199 224.4 497.941 224.4 475.4V434.6C224.4 412.059 206.142 393.801 183.6 393.801H142.8C120.258 393.801 102 412.059 102 434.6V475.4C102 497.941 120.258 516.199 142.8 516.199ZM142.8 434.6H183.6V475.4H142.8V434.6Z" fill="#A7B0BF"/>
</g>
<defs>
<clipPath id="clip0">
<rect width="652.801" height="652.801" fill="white" transform="translate(0 -55)"/>
</clipPath>
</defs>
</svg>
