<svg width="77" height="77" viewBox="0 0 77 77" fill="none" xmlns="http://www.w3.org/2000/svg">
<path fill-rule="evenodd" clip-rule="evenodd" d="M63.9645 27.8483L63.9344 27.7584C63.9113 27.6871 63.8882 27.6169 63.8587 27.5467C63.7015 27.2067 63.5057 26.8826 63.2298 26.6067L43.9798 7.3567C43.7039 7.08078 43.3799 6.88507 43.0398 6.72786C42.9734 6.69694 42.9041 6.67512 42.8338 6.65301C42.8021 6.64304 42.7703 6.63296 42.7382 6.62199C42.4687 6.53216 42.1928 6.47441 41.9072 6.45836C41.8748 6.45541 41.8444 6.44633 41.8142 6.43741C41.7792 6.42692 41.7446 6.41666 41.7083 6.41666H19.25C15.7112 6.41666 12.8333 9.29453 12.8333 12.8333V64.1666C12.8333 67.7054 15.7112 70.5833 19.25 70.5833H57.75C61.2888 70.5833 64.1667 67.7054 64.1667 64.1666V28.875C64.1667 28.8386 64.1564 28.8041 64.1458 28.769C64.1368 28.739 64.1278 28.7086 64.125 28.6761C64.1089 28.3937 64.0544 28.1178 63.9645 27.8483ZM41.7083 12.8333V28.875H57.75L41.7083 12.8333Z" fill="#7A899E"/>
</svg>
