<svg width="102" height="102" viewBox="0 0 102 102" fill="none" xmlns="http://www.w3.org/2000/svg">
<g clip-path="url(#clip0)">
<path d="M65.7245 0.589097C65.2568 0.0964974 64.6156 -0.199219 63.951 -0.199219H24.1609C16.8186 -0.199219 10.7579 5.83728 10.7579 13.1788V88.4222C10.7579 95.7645 16.8186 101.801 24.1609 101.801H78.1664C85.5087 101.801 91.5693 95.7645 91.5693 88.4222V28.6759C91.5693 28.0354 91.2736 27.4199 90.8549 26.9514L65.7245 0.589097ZM66.4389 8.49794L83.2667 26.1631H72.3275C69.0754 26.1631 66.4389 23.5514 66.4389 20.2993V8.49794ZM78.1664 96.8734H24.1609C19.5539 96.8734 15.6855 93.0548 15.6855 88.4222V13.1788C15.6855 8.57187 19.529 4.72834 24.1609 4.72834H61.5113V20.2993C61.5113 26.286 66.3408 31.0906 72.3275 31.0906H86.6417V88.4222C86.6417 93.0548 82.7982 96.8734 78.1664 96.8734Z" fill="#BCC4CE"/>
<path d="M71.4402 79.8737H30.8867C29.5318 79.8737 28.4229 80.9818 28.4229 82.3374C28.4229 83.6923 29.5318 84.8012 30.8867 84.8012H71.4651C72.82 84.8012 73.9289 83.6923 73.9289 82.3374C73.9289 80.9818 72.82 79.8737 71.4402 79.8737Z" fill="#BCC4CE"/>
<path d="M49.365 71.0286C49.8335 71.5212 50.4739 71.8169 51.1634 71.8169C51.8537 71.8169 52.4941 71.5212 52.9618 71.0286L67.3998 55.5316C68.336 54.5456 68.262 52.9689 67.2768 52.0577C66.2908 51.1215 64.7142 51.1946 63.8029 52.1806L53.6272 63.0949V36.191C53.6272 34.8353 52.5183 33.7272 51.1634 33.7272C49.8086 33.7272 48.6996 34.8353 48.6996 36.191V63.0949L38.5488 52.1806C37.6126 51.1954 36.0601 51.1215 35.0749 52.0577C34.0897 52.9938 34.0158 54.5464 34.952 55.5316L49.365 71.0286Z" fill="#BCC4CE"/>
</g>
<defs>
<clipPath id="clip0">
<rect width="102" height="102" fill="white"/>
</clipPath>
</defs>
</svg>
