<svg width="48" height="48" viewBox="0 0 48 48" fill="none" xmlns="http://www.w3.org/2000/svg">
<g clip-path="url(#clip0)">
<path d="M46.614 44.146L34.425 31.956C37.143 28.619 38.779 24.367 38.779 19.737C38.779 9.045 30.082 0.347 19.39 0.347C8.698 0.347 0 9.044 0 19.737C0 30.428 8.698 39.126 19.39 39.126C24.372 39.126 28.908 37.22 32.347 34.12L44.493 46.267C44.786 46.56 45.171 46.706 45.554 46.706C45.939 46.706 46.322 46.56 46.615 46.267C47.2 45.682 47.2 44.731 46.614 44.146ZM1.999 19.736C1.999 10.147 9.8 2.346 19.389 2.346C28.977 2.346 36.778 10.147 36.778 19.736C36.778 24.335 34.969 28.511 32.044 31.625C32.03 31.637 32.015 31.641 32.001 31.653C31.981 31.674 31.975 31.701 31.956 31.721C28.787 35.042 24.331 37.124 19.39 37.124C9.8 37.125 1.999 29.324 1.999 19.736Z" fill="#0C4056" fill-opacity="0.4"/>
</g>
<defs>
<clipPath id="clip0">
<rect width="47.054" height="47.054" fill="white"/>
</clipPath>
</defs>
</svg>
