<svg width="404" height="301" viewBox="0 0 404 301" fill="none" xmlns="http://www.w3.org/2000/svg">
<path fill-rule="evenodd" clip-rule="evenodd" d="M66.5212 93.2541V217.68C66.5212 221.051 66.1472 222.737 67.2708 224.422C67.8328 225.549 68.9563 226.108 69.8938 226.108C71.2043 226.108 72.3303 225.549 73.0784 224.239C74.2029 222.551 74.0163 220.862 74.0163 217.305V93.2541H79.825V220.114C79.825 228.731 76.6394 233.041 69.8938 233.041C67.0823 233.041 64.6472 232.108 62.7732 230.047C60.8992 227.983 59.9617 224.797 59.9617 220.303V93.2541H66.5212V93.2541Z" fill="#0071BC"/>
<path fill-rule="evenodd" clip-rule="evenodd" d="M128.545 232.293L119.176 146.846V232.293H114.116V93.2542H120.862L130.417 173.455V93.2542H134.729V232.293H128.545Z" fill="#0071BC"/>
<path fill-rule="evenodd" clip-rule="evenodd" d="M185.323 155.84V160.713H176.141V226.487H186.635V232.293H167.895V93.2542H185.323V99.2512H176.141V155.84H185.323Z" fill="#0071BC"/>
<path fill-rule="evenodd" clip-rule="evenodd" d="M367.274 73.5789V85.1995H39.9124V73.5789H367.274Z" fill="#0071BC"/>
<path fill-rule="evenodd" clip-rule="evenodd" d="M367.274 242.602V254.217H39.9124V242.602H367.274Z" fill="#0071BC"/>
<path fill-rule="evenodd" clip-rule="evenodd" d="M385.262 266.022V277.643H18.9255V266.022H385.262Z" fill="#0071BC"/>
<path fill-rule="evenodd" clip-rule="evenodd" d="M403.625 288.696V300.5H0.374756V288.696H403.625Z" fill="#0071BC"/>
<path fill-rule="evenodd" clip-rule="evenodd" d="M201.999 0.49976L366.52 47.3474V59.7141L200.5 14.5544L39.1628 60.4622V48.096L201.999 0.49976Z" fill="#0071BC"/>
<path fill-rule="evenodd" clip-rule="evenodd" d="M329.235 60.4622H295.315L203.311 35.5413L111.495 59.7141L76.4514 60.4622L203.684 23.9231L329.235 60.4622Z" fill="#0071BC"/>
<path fill-rule="evenodd" clip-rule="evenodd" d="M231.981 133.355H239.102V106.371C239.102 106.371 238.912 98.5007 237.037 96.2541C235.166 94.1916 232.918 92.3166 228.045 92.3166C223.362 92.5061 222.235 93.8176 220.549 95.8777C218.674 97.9397 217.926 101.498 217.926 105.249C217.926 108.994 218.115 125.673 218.674 131.293C219.237 136.729 224.485 158.838 227.483 169.522C230.295 180.389 231.606 185.824 231.795 188.822C231.981 192.004 232.354 202.688 231.981 207.934C231.795 213.18 231.981 220.487 231.981 220.487C231.981 220.487 232.354 226.297 228.983 226.297C225.422 226.297 225.795 220.487 225.795 220.487V187.51H218.674V220.303C218.674 220.303 216.803 232.293 228.045 232.293C239.477 232.293 239.477 221.614 239.477 221.614V191.631C239.477 191.631 238.912 181.699 237.037 174.768C235.166 168.02 229.168 146.472 227.856 140.474C226.36 134.106 225.795 124.734 225.795 116.303C225.795 107.872 225.985 102.625 225.985 102.625C225.985 102.625 225.795 98.6902 228.983 98.6902C231.981 98.6902 231.795 102.812 231.795 102.812L231.981 133.355V133.355Z" fill="#0071BC"/>
<path fill-rule="evenodd" clip-rule="evenodd" d="M286.508 133.729H292.692V101.311C292.692 96.2541 289.883 91.1941 282.946 91.1941C276.578 91.1941 272.832 95.8777 272.832 101.498V223.301C272.832 228.731 276.578 233.42 282.946 233.42C289.883 233.42 292.692 228.547 292.692 223.485V186.948H286.508V223.301C286.508 225.176 286.698 227.42 282.946 227.42C279.012 227.42 279.391 224.049 279.391 222.737V101.875C279.391 100.563 279.012 97.1892 282.946 97.1892C286.698 97.1892 286.508 99.6257 286.508 101.498V133.729V133.729Z" fill="#0071BC"/>
<path fill-rule="evenodd" clip-rule="evenodd" d="M338.227 91.1941C331.858 91.1941 327.36 95.8777 327.36 101.498V223.301C327.36 228.731 331.858 233.42 338.227 233.42C345.158 233.42 348.721 228.547 348.721 223.485V101.311C348.721 96.2541 345.158 91.1941 338.227 91.1941V91.1941ZM342.535 223.301C342.535 225.176 341.977 227.42 338.227 227.42C334.291 227.42 333.918 224.049 333.918 222.737V101.875C333.918 100.563 334.291 97.1892 338.227 97.1892C341.977 97.1892 342.535 99.6257 342.535 101.498V223.301Z" fill="#0071BC"/>
</svg>
